<svg id="Laag_1" data-name="Laag 1" xmlns="http://www.w3.org/2000/svg" viewBox="0 0 544.9 352.09"><defs><style>.cls-1,.cls-4{fill:#fff;}.cls-2{fill:#c61a27;}.cls-3{fill:#d0d0d0;}.cls-4{fill-rule:evenodd;}.cls-5{fill:#bfbfbf;}</style></defs><title>lotusbakeriesgroup_logo</title><path class="cls-1" d="M157.41,352.09c-.07-16.67,57.82-53.49,191-62.95C479.17,279.86,526.82,261.33,542.1,202,554.42,154,523.85,86.84,494.36,33.21c-11.86-22.63-14-24.51-17.82-33C463.22,10.38,360.51-10.55,199.61,8,49.37,25.35,6.31,71.87.41,129.84-8.11,213.43,118,318,157.41,352.09Z"/><path class="cls-2" d="M467.14,14.48c28.69,50.26,70.63,133.38,54,189.87-17.37,58.82-99.36,71.68-185.59,77.3-85.26,5.59-144.18,25.64-182.1,53.37C87.73,274.87,13.09,194.77,20.5,123.29,25.51,75,79,26.93,221.26,13.69S445.82,14.37,467.14,14.48Z"/><path class="cls-3" d="M17.64,121.93c2.71-26.4,19.43-52.7,56.4-73.54C35,69.21,17.42,95.78,14.63,122.45,7.57,189.86,73.51,264.86,136.93,324,74.74,264.5,10.71,189.46,17.64,121.93ZM472.7,17.75C501.12,68,540.37,149.64,523.87,206.17c-7.89,27-29.23,44.29-58.26,55.68,30.51-11.26,53-28.59,61.18-56C543.48,149.9,501.45,67.54,472.7,17.75Z"/><path class="cls-4" d="M452.88,113.45c-.55-6.06,3.7-9.89,7.26-10s6.35.68,8.45,2.7a8.94,8.94,0,0,1,2.62,6.53,1,1,0,0,0,1.17,1.25c.64,0,4.44-1.61,3.9-7.53-1-11.45-14.58-14-21.3-13.55-13.88,1-26.92,12.17-25.7,25.62,1.63,18.12,20.92,24.57,21.9,40.77.47,7.64-3.9,13.25-12.84,13.62-8.11.33-14.32-3.26-14.86-12.15-.35-5.72,2.59-6.32,2.49-8-.05-.79-1.23-1.37-2.81-1.28-3.84.2-7.18,3.29-9.08,7.64-11.74,25.5-26.26,16-22.19,6.2,1.09-2.62,24.86-54.92,24.42-61.87-.31-5.09-6.54-4-7.56-4s-2.48.17-5,.39c-5.75.51-10.33,3-13.83,11.52-.68,1.62-16.7,40.51-18.56,44.45-3.7,7.92-8.82,16.27-19,16.67-3.05.13-9.23-2.14-6.13-12.16,1.88-6.08,14.86-36,16.83-41.32s3.86-9.52,3.78-11c-.33-5.09-6.55-4-7.58-4s-2.48.17-5,.39c-5.74.51-10.32,3-13.82,11.52-.56,1.31-16.34,34.59-21.84,55.34-10.87,9.79-22.24,14.14-26.24,14-3.09-.13-13.48-.58-7.48-15l29.3-68.83a380.73,380.73,0,0,0,49.49-15c20.45-8,20.94-15.81,9.24-12.24-8.81,2.7-29.14,6.62-51.22,10.73,6.28-12.43,13.08-26.95,13.1-28.81,0-2.09-1-2.7-2.72-2.7-4.07,0-8.4,1.22-12.82,2.39s-6.74,3.19-10,7.54L295.41,89.62c-16.25,3-31.35,5.92-41.37,8.27-8.09,1.89-10.31,9.45,6.06,10.12a155.41,155.41,0,0,0,26.72-1.62c-4,8.16-8.07,16.58-11.91,24.8-7,11.67-20.09,25.32-30.79,27a43.92,43.92,0,0,0,.76-9.82c-1.33-24.09-12.8-31.93-25-31.92-33.57,0-55.73,43.83-54.33,69.21a34.42,34.42,0,0,0,3.25,13.14c-6.75,3.53-13,6.85-22.37,8.91-19.63,4.34-24.93-8.89-14.67-31,13.4-28.89,44.78-85.8,63-111.65,4.24-6-.41-9-5.84-8.39s-11.82,1.65-13.82,2c-2.16.44-3.14-.1-10.13,10.44-8.4,12.66-48.75,75.36-62.2,108.86s-15,64,32.67,53.89a121.46,121.46,0,0,0,45.77-20.36,22.88,22.88,0,0,0,9.9,2.31c24.4,0,40.44-20.31,48.24-39.52,7.51-1.29,15.33-6.85,22.39-13.59-4.63,11.13-7.84,20.13-8.54,24.95-.77,5.43-.33,9.87,2.24,13.79,2.76,4.18,10,7,16.86,6.88A79.84,79.84,0,0,0,318.52,190c3.07,6.05,9.79,8.94,18.42,8.35,12.45-.87,22.9-9.78,28.14-15.18,8.95,15.05,32.25,16.64,48.84-8,3.85,9.76,14.42,15.09,27.1,14.57,20.78-.85,35.15-15.71,33.65-32.4C472.7,135.53,453.82,124,452.88,113.45ZM192.81,194.68c-2.61,0-5.54-2.94-5.77-7.66-.65-13.12,14.47-60.27,30.39-59.89,4.67.11,6.56,7.39,5.77,13.74C221.74,152.52,212.68,194.65,192.81,194.68Z"/><path class="cls-5" d="M398,177.45c3.25.07,6.57-2.14,9.65-5.1,2.09-2,8.38-12.32,9.47-14.76a8.58,8.58,0,0,1,5.42-4.21c-2,1.1-4.2,4.87-5.07,6.74-1,2.19-5.7,10.27-7.24,11.91C408.52,173.84,404.66,179.39,398,177.45Z"/><path class="cls-5" d="M296.25,92.86l1.32-.25L312,65.18c2.92-3.94,4.84-5.85,8.26-6.76,0,0,5-1.45,10.95-3.36.3-.75-.08.3,0,0-3.45,0-7.24,1-11.25,2.08l-.79.21c-3.41.91-5.38,2.4-8.3,6.34L296.44,91.12l-1.32.25c-15.31,2.85-30.89,5.82-41.25,8.25-2.69.62-4,1.89-4.07,2.21a3.22,3.22,0,0,0,1.53,1,8.17,8.17,0,0,1,3.67-1.74C265.36,98.68,280.94,95.71,296.25,92.86Z"/><path class="cls-5" d="M247.74,160.75c10.84-3.37,23-16,29.95-27.76,3.8-8.1,5.06-10.78,9.24-19.26l2.3-4.67-2,.27-1.43,2.9c-4.18,8.49-5.44,11.18-9.24,19.26-6.64,11.17-17.92,23.15-28.33,27.2C248.16,158.83,247.91,160.29,247.74,160.75Z"/><path class="cls-5" d="M141,211.36a23,23,0,0,0,6.33-.83,84.68,84.68,0,0,0,22.81-8.65l2.62-1.41-1.14-2.39a31.63,31.63,0,0,1-3-12.07c-.76-13.82,6.13-35.91,20.76-51.4,6.41-6.78,15.83-16.36,29.68-16.38h0c-13.85,0-24.4,8.11-30.81,14.9-14.63,15.48-21.52,37.57-20.76,51.39a31.06,31.06,0,0,0,2.64,12l1.28,2.59-2.37,1.25c-6.81,3.55-13.23,6.92-22.83,9a34.36,34.36,0,0,1-7.39.89,21.33,21.33,0,0,1-4.19-.39h0C135.55,210.89,139,211.3,141,211.36Z"/><path class="cls-5" d="M105.7,179.54c13-32.34,52.16-93.7,61.93-108.37,3.55-5.3,5.71-8.22,6.44-8.67a2.59,2.59,0,0,1,.37-.37,5.67,5.67,0,0,1,2-1.18c3-.67,5.06-1.17,6.77-1.51l8-1.5h0a13.54,13.54,0,0,0-2.46.08s-6.91.71-13.35,2a7,7,0,0,0-1.92.54A2.47,2.47,0,0,0,173,61c-.74.45-2.9,3.37-6.45,8.68-9.77,14.66-48.94,76-61.93,108.36-8.67,21.57-10.29,36.61-4.82,44.7a13.72,13.72,0,0,0,1,1.27C95.46,215.89,97.11,200.94,105.7,179.54Z"/><path class="cls-5" d="M256.31,186.57c.42-2.92,2.21-9.52,8.36-24.3l-1.36-.93c-5.95,14.38-7.71,20.85-8.13,23.74-.75,5.25-.21,8.81,1.8,11.88a7.64,7.64,0,0,0,1,1.14C256.1,195.11,255.59,191.64,256.31,186.57Z"/><path class="cls-5" d="M329.44,86.74c18.25-3.63,29.18-6.19,37.11-8.54,3.62-1.07,6.36-2.19,9.33-3.18h0a19,19,0,0,0-3,.69c-8.43,2.58-19.76,4.92-44.59,9.53l-3.42.64L324,87.75Z"/><path class="cls-5" d="M437,105.32a33.87,33.87,0,0,1,18.81-10.76c.48-.11.54,0,0,0s-1,0-1.39,0a27.26,27.26,0,0,0-18.56,9.22,18.09,18.09,0,0,0-4.58,13.39c.53,5.85,3.11,10.34,6.37,14.55a25.89,25.89,0,0,1-5.25-13.06A18.08,18.08,0,0,1,437,105.32Z"/><path class="cls-5" d="M291.77,186.88c6.57,1.39,17.74-3.07,29-13.22l.6-.55.22-.79c3.2-12.08,10.48-30.61,21.07-53.58.35-.75.56-1.22.62-1.35,3.15-7.62,6.09-9.93,11.86-10.93,0,0,5.11-.5,8.2-.92h0c-.53,0-3.88.06-4.22.09l-.61,0c-.71,0-1.64.1-3,.23l-1.8.16c-4.64.4-8.38,2.22-11.52,9.83-.06.14-.27.61-.62,1.36-10.59,23-17.87,41.5-21.07,53.58l-.21.8-.61.55c-11.27,10.14-23.08,14.7-27.88,14.7Z"/><path class="cls-5" d="M437.66,174.61c4.64.79,10.56-1.1,13.3-4.14s3.17-7.85,2.19-12.41h0a15.44,15.44,0,0,1-3.63,11.59c-2.74,3-6.85,4.76-11.86,5Z"/><path class="cls-5" d="M351.69,174.19c11.74,1.87,18.37-8,22.48-16.76,1.69-3.6,14.59-34.84,18.51-44.32,3.24-7.83,6.31-9.83,10.75-10.75,0,0,3.68-.67,9.16-1.34h0c-.53,0-3.63.09-4,.12l-.64,0c-.75,0-1.76.1-3.31.24l-1.5.13c-4.66.41-8.39,2.24-11.63,10.07-3.92,9.49-16.82,40.72-18.5,44.32-4.12,8.77-9.87,17.8-21.36,18.25Z"/><path class="cls-5" d="M225.39,137.08c0,4.91-7.12,53.49-29.32,58.92h0c24.52-4.15,30.65-52.45,29.32-58.92Z"/><path class="cls-1" d="M277.29,224.68a8.83,8.83,0,0,0-6.09-2.44c-2.21,0-5,.85-5,3.53,0,5.32,13.36,5.24,13.36,12.42,0,4.15-4.35,8-10.41,8a20,20,0,0,1-6.94-1.17l-1.13-4.85a13.43,13.43,0,0,0,8.5,3.22c2.21,0,5.55-1.32,5.55-4,0-6-13.35-5-13.35-13.19,0-4.89,5-6.76,9.74-6.76a19.23,19.23,0,0,1,5.78.86Z"/><path class="cls-1" d="M284.9,227.75a3.76,3.76,0,0,0,2.53-.62h.11V241.3c0,1.78-.23,3.22,1.48,4.19v.11h-6.48v-.11c1.7-1,1.47-2.41,1.47-4.19V232c0-1.79.23-3.18-1.47-4.15v-.12Zm.74-2.33a2.5,2.5,0,0,1-2.52-2.56,2.42,2.42,0,0,1,2.52-2.29A2.37,2.37,0,0,1,288,223,2.41,2.41,0,0,1,285.64,225.42Z"/><path class="cls-1" d="M294.34,227.75a5.1,5.1,0,0,0,2.6-.51h.11v3a6.33,6.33,0,0,1,5.48-3,7.25,7.25,0,0,1,5.9,2.68c1.08,1.55,1,4,1,5.79v5.62c0,1.79-.24,3.19,1.47,4.16v.11h-6.48v-.11c1.71-1,1.47-2.41,1.47-4.16v-5.24c0-4.15-1.16-6.28-4.69-6.28s-4.12,2.36-4.12,4.65v6.87c0,1.79-.23,3.19,1.48,4.16v.11H292v-.11c1.71-1,1.48-2.41,1.48-4.19v-9.24c0-1.79.23-3.22-1.48-4.19v-.12Z"/><path class="cls-1" d="M328.42,231.71h-.12a6.37,6.37,0,0,0-4.73-1.9,6.18,6.18,0,0,0-6.49,6.32c0,4.47,3.77,7.42,8.08,7.42a10.09,10.09,0,0,0,5.67-1.9h.11l-2,3.68a14.42,14.42,0,0,1-5.12.78c-6,0-10.64-3.92-10.64-9,0-6.67,5.2-9.9,11.07-9.9a19.09,19.09,0,0,1,4.19.47Z"/><path class="cls-1" d="M335.71,236.06c.08,4.73,3.38,7.49,7.77,7.49a10.2,10.2,0,0,0,6.36-2.06H350L348,245.14a13.92,13.92,0,0,1-5.36,1c-6.6,0-11.14-4.15-11.14-9.55s3.92-9.32,9.71-9.32a8.33,8.33,0,0,1,8.73,8.82Zm10.17-2.26c-.42-2.71-2.21-4-5-4a4.83,4.83,0,0,0-5,4Z"/><path class="cls-1" d="M367.24,225a15.64,15.64,0,0,0,8.3-6.79h.12v21.89c0,2.21-.16,4,1.94,5.36v.11h-8.15v-.11c2.41-1.17,2.29-3,2.29-5.36v-15h-4.5Z"/><path class="cls-1" d="M389.71,244c6.21-1.28,11.88-6.94,11.88-13.46,0-4-2.21-8.31-6.68-8.31a5.62,5.62,0,0,0-5.67,5.86c0,3.53,2.33,6.33,5.9,6.33a8.21,8.21,0,0,0,4.12-1.25l-2.64,3.23a8.88,8.88,0,0,1-3.15.58,7.94,7.94,0,0,1-8.15-8.07c0-5.67,4.62-9.44,10.1-9.44,6.09,0,10.09,4.78,10.09,10.64a15.18,15.18,0,0,1-5.82,11.53,23.54,23.54,0,0,1-11.92,4.77Z"/><path class="cls-1" d="M412.73,230.16l1.78.11c3.54.24,5.83-1.67,5.83-3.92,0-2.56-2.68-3.88-4.89-3.88a10.78,10.78,0,0,0-5.9,2h-.12L411,220.3a14.61,14.61,0,0,1,5.16-.86c3.61,0,8.27,1.75,8.27,6.06,0,2.95-2.09,4.73-4.73,5.47,3.57.66,6.67,2.8,6.67,6.79,0,6.56-7.14,8.47-12.46,8.47l-4-.32L408,241.26h.12a15.36,15.36,0,0,0,7.06,1.94c3.3,0,6.8-1.83,6.8-5.59,0-2.87-2-4.62-6.17-4.62a10.44,10.44,0,0,0-3.07.39Z"/><path class="cls-1" d="M429.85,245.6l9.78-14.16c1.05-1.52,2.64-3.34,2.64-5.28,0-2.33-2.21-3.69-4.35-3.69a12.55,12.55,0,0,0-6.71,2.48h-.12l2.33-4.73a18.62,18.62,0,0,1,5.08-.78c4.31,0,8.2,2.29,8.2,5.79a8.76,8.76,0,0,1-1.63,4.65l-8.51,12.54,5.13.39a16.89,16.89,0,0,0,8-1.79h.12l-2.14,4.58Z"/></svg>